<?xml version="1.0" encoding="utf-8"?>
<!-- Generator: Adobe Illustrator 16.0.4, SVG Export Plug-In . SVG Version: 6.00 Build 0)  -->
<!DOCTYPE svg PUBLIC "-//W3C//DTD SVG 1.1//EN" "http://www.w3.org/Graphics/SVG/1.1/DTD/svg11.dtd">
<svg version="1.1" id="Layer_1" xmlns="http://www.w3.org/2000/svg" xmlns:xlink="http://www.w3.org/1999/xlink" x="0px" y="0px"
     width="150px" height="150px" viewBox="0 0 792 792" style="enable-background:new 0 0 792 792;" xml:space="preserve" fill="#006A61">
<g>
    <path d="M671.8,564.7c1-9.8,7.1-18.6,17.6-18.4c10.6-0.2,17.1,8.6,18,18.4H671.8z M726.7,592.9c-14.1,4.7-25.9,7.1-32.7,7.1
        c-10.8,0-21.2-3.9-22.2-15.3h70.6c0-34.9-18.6-61.9-52.1-61.9c-47,0-61.5,30.9-61.5,53.7c0,22.8,14.5,53.7,61.5,53.7
        c7.5,0,25.1-2.7,45.5-9.8L726.7,592.9z M569.5,512H615v-29h-45.5V512z M568.5,626.6H614l0.8-100.3h-45.5L568.5,626.6z M437.8,626.6
        h45.5l0.4-45.3h0.4l20.6,45.3h53.3l-32.1-51.5l31.2-48.8h-50l-22.9,42.3l-0.4-0.4l0.8-90.9H439L437.8,626.6z M301.8,576.5
        c0,22.8,14.5,53.7,61.3,53.7c46.6,0,61.1-30.9,61.1-53.7c0-22.7-14.5-53.7-61.1-53.7C316.3,522.8,301.8,553.7,301.8,576.5
         M348.5,576.5c0-15.9,4.1-23.5,14.7-23.5c10.2,0,14.5,7.6,14.5,23.5c0,15.9-4.3,23.5-14.5,23.5C352.6,600,348.5,592.3,348.5,576.5
         M176.4,626.6h45.5l0.4-45.3h0.4l20.6,45.3h53.3l-32.1-51.5l31.2-48.8h-50l-22.9,42.3l-0.4-0.4l0.8-90.9h-45.5L176.4,626.6z
         M54.5,626.6c14.1,2.2,31.8,3.9,50.8,3.9c38.4,0,57.8-16.7,57.8-49.2c0-20.2-10.4-35.3-31.2-39l-22.5-4.1c-5.9-1.2-7.6-3.3-7.6-6.3
        c0-4.5,2.4-8.8,20-8.8c9.8,0,24.5,1.4,34.1,3.3l3.7-35.5c-11.6-2-27.2-3.9-45.7-3.9c-34.9,0-62.7,9.6-62.7,48.2
        c0,14.5,8.6,36.2,33.5,40l20.4,2.9c5.3,0.8,7.4,2.5,7.4,7.6c0,5.5-5.9,7.5-23.5,7.5c-8.8,0-19.6-1.2-30-3.1L54.5,626.6z"/>
    <path d="M708.2,725.7h3.4c-1.7,4.8-6.1,22.2-13.6,20.7c-4.2-0.8-6.1-7.3-11-4.2c-0.8,0.5-1.4,2.5-1.2,3.7c0.8,4.6,4.7,6,8.5,6
        c13.6,0,17.5-16.7,21.3-26.5l13.9-35.5c2.5-6.7,3.6-9.5,8.7-10v-3.1c-3.2,0.1-6.4,0.1-9.5,0.2c-3.2-0.1-6.4-0.1-9.7-0.2v3.1
        c2.5,0,8.1-0.4,7.9,3.7c0,0.6-0.2,1.5-0.6,2.4l-11.5,32.8l-12.4-34.2c-0.2-0.7-0.4-1.4-0.3-1.9c0.2-2.8,4.6-2.6,6.5-2.8v-3.1
        c-4.1,0.1-8.3,0.1-12.4,0.2c-4.2-0.1-8.3-0.1-12.5-0.2v3.1c8.3,0,7.7,1.1,11.2,9.5L708.2,725.7z M660.1,677h-17.4v3.2
        c8.6,0.3,9.3,0.7,9.3,7.5v27.6c0,6.4-0.8,7.2-9.3,7.5v3.4c4.5-0.1,9-0.1,13.6-0.2c4.6,0.1,9.1,0.1,14.6,0.2v-3.4
        c-9.7,0-10.3-1-10.3-7.5v-21.7c0-4.4,0.8-12.6,7.1-12.6c2.7,0,4.2,1.7,4.4,4.4c0.2,2.9,0,5.1,3.9,5c4.2,0.1,3.9-2.1,4.1-5.6
        c0-5.9-3.9-8.8-9.4-8.8c-4.5,0-8,2.6-10.6,6.2V677z M622.7,697.9c-11.5,0-29.6-2.3-29.6,14.1c0,11.3,6.2,14.7,16.9,14.7
        c4.8,0,9.5-1.7,13.1-4.9v4.2c2.7-0.1,5.4-0.1,8.2-0.2c3.2,0.1,6.2,0.1,8.3,0.2v-3.4c-7.4-0.4-8.3-0.8-8.3-7.4v-22.8
        c0-12.3-4.5-16.5-17.1-16.5c-7.6,0-17.4,1.8-18.6,11.1c-0.4,3.1,0.4,5.2,3.3,5.3c2,0,4.5-0.3,4.5-2.7c0-6.5,0.6-10.2,9.5-10.2
        c5.8,0,9.8,2.1,9.8,7.9V697.9z M622.7,701.4v10.1c0,8.2-2.4,11.3-11.5,11.3c-6.6,0-9-4.6-9-10.6c0-10.1,6.2-10.8,14.8-10.8H622.7z
         M566.9,677h-17.4v3.2c8.6,0.3,9.3,0.7,9.3,7.5v27.6c0,6.4-0.8,7.2-9.3,7.5v3.4c4.5-0.1,9-0.1,13.6-0.2c4.6,0.1,9.1,0.1,14.6,0.2
        v-3.4c-9.7,0-10.3-1-10.3-7.5v-21.7c0-4.4,0.8-12.6,7.1-12.6c2.7,0,4.2,1.7,4.4,4.4c0.2,2.9,0,5.1,3.9,5c4.2,0.1,3.9-2.1,4.1-5.6
        c0-5.9-3.9-8.8-9.4-8.8c-4.5,0-8,2.6-10.6,6.2V677z M506.7,695.8c0-9.3,3.1-16.1,13.7-16.1c13.1,0,13.2,12.8,13.2,22.7
        c0,9.4-2.1,21-13.8,21c-12.3,0-13.1-8.4-13.1-18.6V695.8z M506.9,647.6H489v3.3c8.6,0.3,9.3,0.8,9.3,7.5v68.3l8.8-3.4
        c4.6,3.1,10.4,3.4,15.7,3.4c16.2,0,20.1-13.4,20.1-27c0-15.3-4.8-23.9-21.1-23.9c-5.6,0-11.1,1.9-15,5.9V647.6z M471.7,665.6
        c3.7,0,5.9-3,5.9-6.9c0-3.9-2.2-6.9-5.9-6.9c-3.7,0-5.9,3-5.9,6.9C465.8,662.6,468,665.6,471.7,665.6 M476.4,677h-17.9v3.3
        c8.4,0.6,9.3,0.6,9.3,7.4v27.6c0,6-0.4,7.4-9.3,7.4v3.4c4.5-0.1,9-0.2,13.6-0.2s9.1,0.1,13.6,0.2v-3.4c-8.9,0-9.4-1.4-9.4-7.4V677z
         M394,725.7h56.7v-21.3h-5.6c-1.5,14.9-2.3,16.8-13.1,17h-18.6v-57.6c0-5.8,0.1-7.1,10.1-7.1v-3.6c-4.9,0.1-9.9,0.1-14.8,0.2
        c-4.9-0.1-9.8-0.1-14.8-0.2v3.6c10.2,0,10.1,1.5,10.1,7.1v51.4c0,5.7,0.1,7.1-10.1,7.1V725.7z M350.8,710.4c-1,7.8-0.4,13-12.1,13
        c-14.3,0-15.5-10.8-15.5-22.3c0-11.5,1.4-21.8,15.4-21.8c12.6,0,11.2,7.6,11.9,12.6h5.5v-11.1c-3.9-3.9-13.6-4.8-18.8-4.8
        c-17.4,0-23.4,8.6-23.4,25.2c0,17,4.8,25.7,22.9,25.7c7.1,0,12.9-0.8,19.3-4.1v-12.3H350.8z M291.2,665.6c3.7,0,5.9-3,5.9-6.9
        c0-3.9-2.2-6.9-5.9-6.9c-3.7,0-5.9,3-5.9,6.9C285.3,662.6,287.5,665.6,291.2,665.6 M295.9,677h-17.9v3.3c8.4,0.6,9.3,0.6,9.3,7.4
        v27.6c0,6-0.4,7.4-9.3,7.4v3.4c4.5-0.1,9-0.2,13.6-0.2c4.6,0,9.1,0.1,13.6,0.2v-3.4c-8.9,0-9.3-1.4-9.3-7.4V677z M252.5,715.3
        c0,6-0.5,7.2-9.3,7.2v3.4c4.5-0.1,9-0.2,13.6-0.2c4.6,0,9.1,0.1,13.6,0.2v-3.4c-8.9,0-9.3-1.4-9.3-7.4v-67.6h-17.9v3.3
        c8.8,0,9.3,1.3,9.3,7.2V715.3z M198,695.8c0-9.3,3.1-16.1,13.7-16.1c13.1,0,13.2,12.8,13.2,22.7c0,9.4-2.1,21-13.9,21
        c-12.3,0-13.1-8.4-13.1-18.6V695.8z M198.2,647.6h-17.9v3.3c8.6,0.3,9.3,0.8,9.3,7.5v68.3l8.8-3.4c4.6,3.1,10.4,3.4,15.7,3.4
        c16.3,0,20.1-13.4,20.1-27c0-15.3-4.8-23.9-21.1-23.9c-5.5,0-11.1,1.9-15,5.9V647.6z M160.2,726c2.8-0.1,5.7-0.1,8.5-0.2
        c3.1,0.1,6.2,0.1,9.4,0.2v-3.4c-8.9,0-9.3-1.4-9.3-7.4V677h-17.4v3.2c8.4,0,8.8,1.6,8.8,7.3v17c0,9.8-0.6,17.9-12.8,17.9
        c-10,0-10.6-6.1-10.6-14.4v-31h-17.9v3.2c8.9,0,9.3,1.4,9.3,7.3v26.1c0,10.4,6.3,13.2,15.7,13.2c5.1,0,13-2.7,16.3-6.9V726z
         M74.3,656.9h10.3c11.9,0,17,1.2,17,16.5c0,15.8-9,16.5-22.1,16.5h-5.1V656.9z M74.3,693.5h9.6c16.9,0,28.1-2.3,28.1-22
        c0-14.6-7.4-18.7-20.8-18.3c-7.2,0.1-14.5,0.1-21.7,0.2c-4.9-0.1-9.9-0.1-14.8-0.2v3.6c10.2,0,10.1,1.5,10.1,7.1v51.4
        c0,5.7,0.1,7.1-10.1,7.1v3.6c4.9-0.1,9.9-0.1,14.8-0.2c4.9,0.1,9.9,0.1,14.8,0.2v-3.6c-10.2,0-10.1-1.5-10.1-7.1V693.5z"/>
    <g>
        <path d="M389.5,40.4v340c0,9.4,2.6,21.2,7.9,32.6l16.1-345.5l23.1,26.1l-31.8,332.2c2.6,3.6,5.7,7.2,8.1,9.9l45.4-317.5l21.1,23.8
            l-58.6,300.8c3.1,2.2,5.4,4.2,8.9,5.7l69.8-283.7l19.3,21.8L439,452.3c1.7,0.6,7.5,1.8,10.2,1.8l88-246.7l17.8,20.1l-95.2,226.8
            c4.1,0.1,10.6-1,10.6-1L572.3,247L589,266L481.4,451c4-0.9,6.5-1.9,10.5-3.2l113.4-163.4l15.6,17.6L504.4,443.3
            c2.8-1,10.7-4.3,13.5-5.4c51.4-52.8,113.4-114.6,117.9-119l14.6,16.5c-3.9,2.8-45.3,32.5-114.6,95.1c4.1-2,10.8-4.4,16.2-6.2
            c56-46.1,107.7-70.7,112.5-72.9l13.7,15.5c-5.1,1.2-49.6,12.7-105.7,51.8c6.2-1.7,12.4-2.7,19.5-3.5
            c45.5-27.9,99.4-33.3,99.6-33.3l12.9,14.6c-5.6-0.3-45.5-1.3-92.3,18c5.8,0.2,15.8,0.7,21,1.1c38.8-10.4,79.1-4.8,84.8-4
            l12.5,14.1c-8.6-2.2-42.3-10.1-72.3-6.7c24.3,3.2,57.6,15.9,74.3,24.6v-15.5v-1.8v-386H389.5z"/>
        <polygon points="55.9,448.8 389.5,40.4 55.9,40.4        "/>
    </g>
</g>
</svg>
