<?xml version="1.0" encoding="utf-8"?>
<!-- Generator: Adobe Illustrator 16.0.4, SVG Export Plug-In . SVG Version: 6.00 Build 0)  -->
<!DOCTYPE svg PUBLIC "-//W3C//DTD SVG 1.1//EN" "http://www.w3.org/Graphics/SVG/1.1/DTD/svg11.dtd">
<svg version="1.1" id="_x2014_ÎÓÈ_1" xmlns="http://www.w3.org/2000/svg" xmlns:xlink="http://www.w3.org/1999/xlink" x="0px"
	 y="0px" width="300px" height="200px" viewBox="0 0 300 200" style="enable-background:new 0 0 300 200;" xml:space="preserve">
<style type="text/css">
<![CDATA[
	.st0{fill:#ACE5DB;}
	.st1{fill:#E25230;}
	.st2{fill:#4B6568;}
	.st3{fill:#18343A;}
	.st4{fill:#B1A651;}
	.st5{fill:#EDC298;}
	.st6{fill:#F2B74E;}
	.st7{fill:#F45E40;}
	.st8{fill:#F9DEB2;}
	.st9{fill:#5FC1AE;}
	.st10{fill:#C03E31;}
	.st11{fill:#97A5A6;}
	.st12{fill:#FABF37;}
	.st13{fill:#999999;}
	.st14{fill:#FECE68;}
	.st15{fill:#FFEE99;}
	.st16{fill:#FFFFFF;}
	.st17{fill:#62BADD;}
	.st18{fill:#63BBAF;}
	.st19{fill:#CCCCCC;}
	.st20{fill:#6A9BCC;}
	.st21{fill:#D04F44;}
	.st22{fill:#043942;}
	.st23{fill:#754C24;}
]]>
</style>
<rect y="0.1" class="st9" width="300" height="199.9"/>
<g>
	<g>
		<path class="st3" d="M197.3,148.7c0,1.7-1.3,3-3,3h-61.2c-1.7,0-3-1.3-3-3v-34.9c0-1.7,1.3-3,3-3h61.2c1.7,0,3,1.3,3,3V148.7z"/>
		<rect x="133.5" y="114.3" class="st17" width="60.5" height="33.1"/>
		<rect x="135.9" y="119.8" class="st16" width="55.6" height="25.1"/>
		<g>
			<rect x="144.6" y="122.8" class="st3" width="16.7" height="19.2"/>
			<g>
				<path class="st17" d="M157.9,139.4l0-6.2c0-0.5-0.4-0.9-0.9-0.9l-3.9-0.5l-3.8,0.5c-0.5,0-1,0.4-1,0.9l0,6.2L157.9,139.4z"/>
				<path class="st12" d="M155.8,127.3c-0.1-1.8-0.8-3.2-2.8-3.2c-2,0-2.7,1.4-2.8,3.2c-0.2,0-0.4,0.2-0.4,0.4l0,0.8
					c0,0.2,0.2,0.4,0.4,0.4c0,0,0,0,0.1,0c0.2,0.8,0.6,1.5,1.1,1.9l0,1.2l0.3,1.4l2.5,0l0.3-1.4v-1.2c0.5-0.5,0.9-1.1,1.1-1.9
					c0,0,0,0,0.1,0c0.2,0,0.4-0.2,0.4-0.4v-0.8C156.2,127.5,156.1,127.3,155.8,127.3z"/>
			</g>
		</g>
		<g>
			<rect x="135.9" y="115.8" class="st1" width="55.6" height="4.1"/>
			
				<rect x="137.5" y="117.5" transform="matrix(1 1.123225e-03 -1.123225e-03 1 0.1325 -0.1643)" class="st16" width="17.8" height="0.7"/>
		</g>
		<g>
			<circle class="st16" cx="175.1" cy="128.2" r="4.6"/>
			<g>
				<g>
					<path class="st12" d="M172.9,131.9c0,0-1.3,3.7-1.3,3.8c0,0.1,3.5-2.6,3.5-2.6S172.9,131.8,172.9,131.9z"/>
					<path class="st17" d="M172.9,131.9C172.9,131.9,172.9,131.9,172.9,131.9c0.3,0,2.2,1.3,2.2,1.3s-3.5,2.6-3.5,2.6c0,0,0,0,0,0
						C171.6,135.6,172.8,131.9,172.9,131.9z"/>
				</g>
				<path class="st17" d="M175.1,122.7c-3,0-5.5,2.5-5.5,5.5c0,3,2.5,5.5,5.5,5.5c3,0,5.5-2.5,5.5-5.5S178.1,122.7,175.1,122.7z
					 M178,130.1l-5.9,0c-0.2,0-0.4-0.2-0.4-0.4c0-0.2,0.2-0.4,0.4-0.4l5.9,0c0.2,0,0.4,0.2,0.4,0.4
					C178.5,129.9,178.3,130.1,178,130.1z M178,128.6l-5.9,0c-0.2,0-0.4-0.2-0.4-0.4c0-0.2,0.2-0.4,0.4-0.4l5.9,0
					c0.2,0,0.4,0.2,0.4,0.4C178.5,128.4,178.3,128.6,178,128.6z M178,127l-5.9,0c-0.2,0-0.4-0.2-0.4-0.4c0-0.2,0.2-0.4,0.4-0.4
					l5.9,0c0.2,0,0.4,0.2,0.4,0.4C178.5,126.8,178.3,127,178,127z"/>
			</g>
		</g>
		
			<rect x="164.9" y="140.9" transform="matrix(1 1.120034e-03 -1.120034e-03 1 0.1584 -0.1946)" class="st13" width="17.9" height="0.8"/>
		
			<rect x="164.9" y="138.4" transform="matrix(1 1.174670e-03 -1.174670e-03 1 0.1631 -0.2041)" class="st13" width="17.9" height="0.8"/>
	</g>
	<g>
		<path class="st5" d="M162.6,159.7c0,1.4-1.1,2.5-2.5,2.5l0,0c-1.4,0-2.5-1.1-2.5-2.5v-20.2c0-1.4,1.1-2.5,2.5-2.5l0,0
			c1.4,0,2.5,1.1,2.5,2.5V159.7z"/>
		<path class="st5" d="M168.8,159.7c0,1.4-1.1,2.5-2.5,2.5l0,0c-1.4,0-2.5-1.1-2.5-2.5v-3.9c0-1.4,1.1-2.5,2.5-2.5l0,0
			c1.4,0,2.5,1.1,2.5,2.5V159.7z"/>
		<path class="st5" d="M174.9,159.7c0,1.4-1.1,2.5-2.5,2.5l0,0c-1.4,0-2.5-1.1-2.5-2.5v-3.9c0-1.4,1.1-2.5,2.5-2.5l0,0
			c1.4,0,2.5,1.1,2.5,2.5V159.7z"/>
		<path class="st5" d="M181.1,159.7c0,1.4-1.1,2.5-2.5,2.5l0,0c-1.4,0-2.5-1.1-2.5-2.5v-3.9c0-1.4,1.1-2.5,2.5-2.5l0,0
			c1.4,0,2.5,1.1,2.5,2.5V159.7z"/>
		<path class="st5" d="M176.9,155.5h-15.2c-2.3,0-4.1,1.8-4.1,4.1v12.1l5.5,8.2h13.8c2.3,0,4.1-1.8,4.1-4.1v-16.2
			C181.1,157.3,179.2,155.5,176.9,155.5z"/>
		<path class="st5" d="M163.8,161.6c-2.4,0-4.6,0.9-6.2,2.4l-6.1-9c-0.9-1.3-2.6-1.6-3.8-0.7c-1.3,0.9-1.6,2.6-0.7,3.8l14.1,20.7
			c0.5,0.8,1.3,1.2,2.2,1.2l0,0c0,0,0,0,0,0c0.1,0,0.1,0,0.2,0c0.1,0,0.3,0,0.4,0c5.1,0,9.2-4.1,9.2-9.2
			C173,165.7,168.9,161.6,163.8,161.6z"/>
		<path class="st8" d="M161.9,140.6V139c0-0.6-0.5-1.1-1.1-1.1h-1.4c-0.6,0-1.1,0.5-1.1,1.1v1.6H161.9z"/>
		<path class="st5" d="M162.7,188.4c3.2,0.5,5.4,2,8.7,2c1.9,0,5-0.1,6.9-0.3v-11.3h-15.6V188.4z"/>
		<path class="st8" d="M146.9,158l1.1,1.6l2.9-2l-1.1-1.7c-0.5-0.7-1.4-0.8-2-0.4l-1.3,0.9C146.5,157.1,146.6,157.6,146.9,158z"/>
	</g>
	<rect x="161" y="181.7" class="st13" width="18.4" height="6.1"/>
	<rect x="160.4" y="184.7" class="st23" width="19.7" height="15.3"/>
</g>
<g>
	<g>
		<path class="st3" d="M106.5,43c0-1.7,1.4-3.1,3.1-3.1h63.5c1.7,0,3.1,1.4,3.1,3.1v45.8c0,1.7-1.4,3.1-3.1,3.1h-63.5
			c-1.7,0-3.1-1.4-3.1-3.1V43z"/>
		<g>
			<path class="st2" d="M166.4,83.5c0-0.2,0.2-0.4,0.4-0.4h4.4c0.2,0,0.4,0.2,0.4,0.4v4.4c0,0.2-0.2,0.4-0.4,0.4h-4.4
				c-0.2,0-0.4-0.2-0.4-0.4V83.5z"/>
			<path class="st2" d="M159.5,83.5c0-0.2,0.2-0.4,0.4-0.4h4.4c0.2,0,0.4,0.2,0.4,0.4v4.4c0,0.2-0.2,0.4-0.4,0.4h-4.4
				c-0.2,0-0.4-0.2-0.4-0.4V83.5z"/>
			<path class="st2" d="M152.6,83.5c0-0.2,0.2-0.4,0.4-0.4h4.4c0.2,0,0.4,0.2,0.4,0.4v4.4c0,0.2-0.2,0.4-0.4,0.4h-4.4
				c-0.2,0-0.4-0.2-0.4-0.4V83.5z"/>
			<path class="st2" d="M145.7,83.5c0-0.2,0.2-0.4,0.4-0.4h4.4c0.2,0,0.4,0.2,0.4,0.4v4.4c0,0.2-0.2,0.4-0.4,0.4H146
				c-0.2,0-0.4-0.2-0.4-0.4V83.5z"/>
			<path class="st2" d="M138.8,83.5c0-0.2,0.2-0.4,0.4-0.4h4.4c0.2,0,0.4,0.2,0.4,0.4v4.4c0,0.2-0.2,0.4-0.4,0.4h-4.4
				c-0.2,0-0.4-0.2-0.4-0.4V83.5z"/>
			<path class="st2" d="M131.9,83.5c0-0.2,0.2-0.4,0.4-0.4h4.4c0.2,0,0.4,0.2,0.4,0.4v4.4c0,0.2-0.2,0.4-0.4,0.4h-4.4
				c-0.2,0-0.4-0.2-0.4-0.4V83.5z"/>
			<path class="st2" d="M125,83.5c0-0.2,0.2-0.4,0.4-0.4h4.4c0.2,0,0.4,0.2,0.4,0.4v4.4c0,0.2-0.2,0.4-0.4,0.4h-4.4
				c-0.2,0-0.4-0.2-0.4-0.4V83.5z"/>
			<path class="st2" d="M118.1,83.5c0-0.2,0.2-0.4,0.4-0.4h4.4c0.2,0,0.4,0.2,0.4,0.4v4.4c0,0.2-0.2,0.4-0.4,0.4h-4.4
				c-0.2,0-0.4-0.2-0.4-0.4V83.5z"/>
			<path class="st2" d="M111.2,83.5c0-0.2,0.2-0.4,0.4-0.4h4.4c0.2,0,0.4,0.2,0.4,0.4v4.4c0,0.2-0.2,0.4-0.4,0.4h-4.4
				c-0.2,0-0.4-0.2-0.4-0.4V83.5z"/>
			<path class="st2" d="M166.4,76.5c0-0.2,0.2-0.4,0.4-0.4h4.4c0.2,0,0.4,0.2,0.4,0.4v4.4c0,0.2-0.2,0.4-0.4,0.4h-4.4
				c-0.2,0-0.4-0.2-0.4-0.4V76.5z"/>
			<path class="st2" d="M159.5,76.5c0-0.2,0.2-0.4,0.4-0.4h4.4c0.2,0,0.4,0.2,0.4,0.4v4.4c0,0.2-0.2,0.4-0.4,0.4h-4.4
				c-0.2,0-0.4-0.2-0.4-0.4V76.5z"/>
			<path class="st2" d="M152.6,76.5c0-0.2,0.2-0.4,0.4-0.4h4.4c0.2,0,0.4,0.2,0.4,0.4v4.4c0,0.2-0.2,0.4-0.4,0.4h-4.4
				c-0.2,0-0.4-0.2-0.4-0.4V76.5z"/>
			<path class="st2" d="M145.7,76.5c0-0.2,0.2-0.4,0.4-0.4h4.4c0.2,0,0.4,0.2,0.4,0.4v4.4c0,0.2-0.2,0.4-0.4,0.4H146
				c-0.2,0-0.4-0.2-0.4-0.4V76.5z"/>
			<path class="st2" d="M138.8,76.5c0-0.2,0.2-0.4,0.4-0.4h4.4c0.2,0,0.4,0.2,0.4,0.4v4.4c0,0.2-0.2,0.4-0.4,0.4h-4.4
				c-0.2,0-0.4-0.2-0.4-0.4V76.5z"/>
			<path class="st2" d="M131.9,76.5c0-0.2,0.2-0.4,0.4-0.4h4.4c0.2,0,0.4,0.2,0.4,0.4v4.4c0,0.2-0.2,0.4-0.4,0.4h-4.4
				c-0.2,0-0.4-0.2-0.4-0.4V76.5z"/>
			<path class="st2" d="M125,76.5c0-0.2,0.2-0.4,0.4-0.4h4.4c0.2,0,0.4,0.2,0.4,0.4v4.4c0,0.2-0.2,0.4-0.4,0.4h-4.4
				c-0.2,0-0.4-0.2-0.4-0.4V76.5z"/>
			<path class="st2" d="M118.1,76.5c0-0.2,0.2-0.4,0.4-0.4h4.4c0.2,0,0.4,0.2,0.4,0.4v4.4c0,0.2-0.2,0.4-0.4,0.4h-4.4
				c-0.2,0-0.4-0.2-0.4-0.4V76.5z"/>
			<path class="st2" d="M111.2,72.1c0-0.2,0.2-0.4,0.4-0.4h4.4c0.2,0,0.4,0.2,0.4,0.4v8.8c0,0.2-0.2,0.4-0.4,0.4h-4.4
				c-0.2,0-0.4-0.2-0.4-0.4V72.1z"/>
			<path class="st2" d="M166.4,69.4c0-0.2,0.2-0.4,0.4-0.4h4.4c0.2,0,0.4,0.2,0.4,0.4v4.4c0,0.2-0.2,0.4-0.4,0.4h-4.4
				c-0.2,0-0.4-0.2-0.4-0.4V69.4z"/>
			<path class="st2" d="M159.5,69.4c0-0.2,0.2-0.4,0.4-0.4h4.4c0.2,0,0.4,0.2,0.4,0.4v4.4c0,0.2-0.2,0.4-0.4,0.4h-4.4
				c-0.2,0-0.4-0.2-0.4-0.4V69.4z"/>
			<path class="st2" d="M152.6,69.4c0-0.2,0.2-0.4,0.4-0.4h4.4c0.2,0,0.4,0.2,0.4,0.4v4.4c0,0.2-0.2,0.4-0.4,0.4h-4.4
				c-0.2,0-0.4-0.2-0.4-0.4V69.4z"/>
			<path class="st2" d="M145.7,69.4c0-0.2,0.2-0.4,0.4-0.4h4.4c0.2,0,0.4,0.2,0.4,0.4v4.4c0,0.2-0.2,0.4-0.4,0.4H146
				c-0.2,0-0.4-0.2-0.4-0.4V69.4z"/>
			<path class="st2" d="M138.8,69.4c0-0.2,0.2-0.4,0.4-0.4h4.4c0.2,0,0.4,0.2,0.4,0.4v4.4c0,0.2-0.2,0.4-0.4,0.4h-4.4
				c-0.2,0-0.4-0.2-0.4-0.4V69.4z"/>
			<path class="st2" d="M131.9,69.4c0-0.2,0.2-0.4,0.4-0.4h4.4c0.2,0,0.4,0.2,0.4,0.4v4.4c0,0.2-0.2,0.4-0.4,0.4h-4.4
				c-0.2,0-0.4-0.2-0.4-0.4V69.4z"/>
			<path class="st2" d="M125,69.4c0-0.2,0.2-0.4,0.4-0.4h4.4c0.2,0,0.4,0.2,0.4,0.4v4.4c0,0.2-0.2,0.4-0.4,0.4h-4.4
				c-0.2,0-0.4-0.2-0.4-0.4V69.4z"/>
			<path class="st2" d="M118.1,69.4c0-0.2,0.2-0.4,0.4-0.4h4.4c0.2,0,0.4,0.2,0.4,0.4v4.4c0,0.2-0.2,0.4-0.4,0.4h-4.4
				c-0.2,0-0.4-0.2-0.4-0.4V69.4z"/>
			<path class="st2" d="M111.2,69.4c0-0.2,0.2-0.4,0.4-0.4h4.4c0.2,0,0.4,0.2,0.4,0.4v4.4c0,0.2-0.2,0.4-0.4,0.4h-4.4
				c-0.2,0-0.4-0.2-0.4-0.4V69.4z"/>
			<path class="st2" d="M166.4,62.4c0-0.2,0.2-0.4,0.4-0.4h4.4c0.2,0,0.4,0.2,0.4,0.4v4.4c0,0.2-0.2,0.4-0.4,0.4h-4.4
				c-0.2,0-0.4-0.2-0.4-0.4V62.4z"/>
			<path class="st2" d="M159.5,62.4c0-0.2,0.2-0.4,0.4-0.4h4.4c0.2,0,0.4,0.2,0.4,0.4v4.4c0,0.2-0.2,0.4-0.4,0.4h-4.4
				c-0.2,0-0.4-0.2-0.4-0.4V62.4z"/>
			<path class="st2" d="M152.6,62.4c0-0.2,0.2-0.4,0.4-0.4h4.4c0.2,0,0.4,0.2,0.4,0.4v4.4c0,0.2-0.2,0.4-0.4,0.4h-4.4
				c-0.2,0-0.4-0.2-0.4-0.4V62.4z"/>
			<path class="st2" d="M133.1,62.4c0-0.2,0.2-0.4,0.4-0.4h17c0.2,0,0.4,0.2,0.4,0.4v4.4c0,0.2-0.2,0.4-0.4,0.4h-17
				c-0.2,0-0.4-0.2-0.4-0.4V62.4z"/>
			<path class="st2" d="M138.8,62.4c0-0.2,0.2-0.4,0.4-0.4h4.4c0.2,0,0.4,0.2,0.4,0.4v4.4c0,0.2-0.2,0.4-0.4,0.4h-4.4
				c-0.2,0-0.4-0.2-0.4-0.4V62.4z"/>
			<path class="st2" d="M131.9,62.4c0-0.2,0.2-0.4,0.4-0.4h4.4c0.2,0,0.4,0.2,0.4,0.4v4.4c0,0.2-0.2,0.4-0.4,0.4h-4.4
				c-0.2,0-0.4-0.2-0.4-0.4V62.4z"/>
			<path class="st2" d="M125,62.4c0-0.2,0.2-0.4,0.4-0.4h4.4c0.2,0,0.4,0.2,0.4,0.4v4.4c0,0.2-0.2,0.4-0.4,0.4h-4.4
				c-0.2,0-0.4-0.2-0.4-0.4V62.4z"/>
			<path class="st2" d="M118.1,62.4c0-0.2,0.2-0.4,0.4-0.4h4.4c0.2,0,0.4,0.2,0.4,0.4v4.4c0,0.2-0.2,0.4-0.4,0.4h-4.4
				c-0.2,0-0.4-0.2-0.4-0.4V62.4z"/>
			<path class="st2" d="M111.2,62.4c0-0.2,0.2-0.4,0.4-0.4h4.4c0.2,0,0.4,0.2,0.4,0.4v4.4c0,0.2-0.2,0.4-0.4,0.4h-4.4
				c-0.2,0-0.4-0.2-0.4-0.4V62.4z"/>
			<path class="st2" d="M131.9,46.1c0-0.7,0.6-1.2,1.2-1.2h16.5c0.7,0,1.2,0.6,1.2,1.2v11.4c0,0.7-0.6,1.2-1.2,1.2h-16.5
				c-0.7,0-1.2-0.6-1.2-1.2V46.1z"/>
		</g>
	</g>
	<path class="st3" d="M102.5,93.9v2.8c0,1.7,1.4,3.1,3.1,3.1h71.4c1.7,0,3.1-1.4,3.1-3.1v-2.8H102.5z"/>
	<g>
		<g>
			<path class="st5" d="M126.1,45.6c0-1.2,0.9-2.1,2.1-2.1l0,0c1.2,0,2.1,0.9,2.1,2.1v16.7c0,1.2-0.9,2.1-2.1,2.1l0,0
				c-1.2,0-2.1-0.9-2.1-2.1V45.6z"/>
			<path class="st5" d="M121,45.6c0-1.2,0.9-2.1,2.1-2.1l0,0c1.2,0,2.1,0.9,2.1,2.1v3.3c0,1.2-0.9,2.1-2.1,2.1l0,0
				c-1.2,0-2.1-0.9-2.1-2.1V45.6z"/>
			<path class="st5" d="M115.9,45.6c0-1.2,0.9-2.1,2.1-2.1l0,0c1.2,0,2.1,0.9,2.1,2.1v3.3c0,1.2-0.9,2.1-2.1,2.1l0,0
				c-1.2,0-2.1-0.9-2.1-2.1V45.6z"/>
			<path class="st5" d="M110.8,45.6c0-1.2,0.9-2.1,2.1-2.1l0,0c1.2,0,2.1,0.9,2.1,2.1v3.3c0,1.2-0.9,2.1-2.1,2.1l0,0
				c-1.2,0-2.1-0.9-2.1-2.1V45.6z"/>
			<path class="st5" d="M114.2,49.1h12.6c1.9,0,3.4-1.5,3.4-3.4v-10l-4.6-6.8h-11.4c-1.9,0-3.4,1.5-3.4,3.4v13.4
				C110.8,47.5,112.3,49.1,114.2,49.1z"/>
			<path class="st5" d="M125.1,44c2,0,3.8-0.8,5.1-2l5.1,7.5c0.7,1,2.1,1.3,3.2,0.6c1-0.7,1.3-2.1,0.6-3.2l-11.6-17.1
				c-0.4-0.6-1.1-1-1.8-1l0,0c0,0,0,0,0,0c-0.1,0-0.1,0-0.2,0c-0.1,0-0.2,0-0.4,0c-4.2,0-7.6,3.4-7.6,7.6
				C117.5,40.6,120.9,44,125.1,44z"/>
			<path class="st8" d="M126.6,61.4v1.3c0,0.5,0.4,0.9,0.9,0.9h1.1c0.5,0,0.9-0.4,0.9-0.9v-1.3H126.6z"/>
			<path class="st5" d="M126,21.8c-2.7-0.4-4.4-1.7-7.2-1.7c-1.6,0-4.2,0.1-5.7,0.3v9.4H126V21.8z"/>
			<path class="st8" d="M139.1,46.9l-0.9-1.3l-2.4,1.7l0.9,1.4c0.4,0.5,1.1,0.7,1.7,0.3l1.1-0.7C139.4,47.7,139.3,47.3,139.1,46.9z"
				/>
		</g>
		<g>
			<path class="st5" d="M156.9,45.6c0-1.2-0.9-2.1-2.1-2.1l0,0c-1.2,0-2.1,0.9-2.1,2.1v16.7c0,1.2,0.9,2.1,2.1,2.1l0,0
				c1.2,0,2.1-0.9,2.1-2.1V45.6z"/>
			<path class="st5" d="M168.8,49.1h-12.6c-1.9,0-3.4-1.5-3.4-3.4v-10l4.6-6.8h11.2c1.9,0,3.4,1.5,3.4,3.4v13.4
				C171.9,47.5,170.7,49.1,168.8,49.1z"/>
			<path class="st5" d="M157.9,44c-2,0-3.8-0.8-5.1-2l-5.1,7.5c-0.7,1-2.1,1.3-3.2,0.6c-1-0.7-1.3-2.1-0.6-3.2l11.6-17.1
				c0.4-0.6,1.1-1,1.8-1l0,0c0,0,0,0,0,0c0.1,0,0.1,0,0.2,0c0.1,0,0.2,0,0.4,0c4.2,0,7.6,3.4,7.6,7.6C165.5,40.6,162.1,44,157.9,44z
				"/>
			<path class="st8" d="M156.3,61.4v1.3c0,0.5-0.4,0.9-0.9,0.9h-1.1c-0.5,0-0.9-0.4-0.9-0.9v-1.3H156.3z"/>
			<path class="st5" d="M161.9,45.6c0-1.2-0.9-2.1-2.1-2.1l0,0c-1.2,0-2.1,0.9-2.1,2.1v16.7c0,1.2,0.9,2.1,2.1,2.1l0,0
				c1.2,0,2.1-0.9,2.1-2.1V45.6z"/>
			<path class="st8" d="M161.3,61.4v1.3c0,0.5-0.4,0.9-0.9,0.9h-1.1c-0.5,0-0.9-0.4-0.9-0.9v-1.3H161.3z"/>
			<path class="st5" d="M166.9,45.6c0-1.2-0.9-2.1-2.1-2.1l0,0c-1.2,0-2.1,0.9-2.1,2.1v16.7c0,1.2,0.9,2.1,2.1,2.1l0,0
				c1.2,0,2.1-0.9,2.1-2.1V45.6z"/>
			<path class="st8" d="M166.3,61.4v1.3c0,0.5-0.4,0.9-0.9,0.9h-1.1c-0.5,0-0.9-0.4-0.9-0.9v-1.3H166.3z"/>
			<path class="st5" d="M171.9,45.6c0-1.2-0.9-2.1-2.1-2.1l0,0c-1.2,0-2.1,0.9-2.1,2.1v16.7c0,1.2,0.9,2.1,2.1,2.1l0,0
				c1.2,0,2.1-0.9,2.1-2.1V45.6z"/>
			<path class="st8" d="M171.3,61.4v1.3c0,0.5-0.4,0.9-0.9,0.9h-1.1c-0.5,0-0.9-0.4-0.9-0.9v-1.3H171.3z"/>
			<path class="st5" d="M157,21.8c2.7-0.4,4.4-1.7,7.2-1.7c1.6,0,4.2,0.1,5.7,0.3v9.4H157V21.8z"/>
			<path class="st8" d="M143.9,46.9l0.9-1.3l2.4,1.7l-0.9,1.4c-0.4,0.5-1.1,0.7-1.7,0.3l-1.1-0.7C143.5,47.7,143.7,47.3,143.9,46.9z
				"/>
		</g>
	</g>
	<g>
		<rect x="111.5" y="18.8" class="st16" width="15.2" height="5"/>
		<rect x="109.8" class="st21" width="16.9" height="19.4"/>
	</g>
	<g>
		<rect x="156.5" y="18.8" class="st16" width="15.2" height="5"/>
		<rect x="156.5" class="st21" width="16.9" height="19.4"/>
	</g>
</g>
<g>
	<path class="st5" d="M42.2,120.8c-1.9,0-2.3,3.8-5.3,3.8c0,0-8.1-6.5-8.1-28.3c0-1.8,1.5-3.4,3.4-3.4h13.5c1.9,0,3.4,1.5,3.4,3.4
		v16.7c0,1.9-1.5,3.4-3.4,3.4L42.2,120.8z"/>
	<path class="st5" d="M48.9,98.3l1.2-5.6h-13c-2.3,0-4.2,1.9-4.2,4.2v7.8c1.4,0.5,2.8,0.8,4.3,0.8C42.4,105.6,46.8,102.6,48.9,98.3z
		"/>
	<path class="st3" d="M40.1,121.7c-6.9,0-6.9-10-6.9-11.7c0-1.8,0.2-11.7,6.9-11.8l35.5,0c2.7,0,5,2.2,5,5l0,13.5c0,2.7-2.2,5-5,5
		L40.1,121.7z"/>
	
		<rect x="49.3" y="93.4" transform="matrix(-1.096173e-03 1 -1 -1.096173e-03 169.3936 50.7173)" class="st7" width="20" height="33.2"/>
	<circle class="st1" cx="39.2" cy="109.9" r="1.8"/>
	<path class="st5" d="M47.4,95.5c0-1.5,1.2-2.8,2.8-2.8l0,0c1.5,0,2.8,1.2,2.8,2.8v7.9c0,1.5-1.2,2.8-2.8,2.8l0,0
		c-1.5,0-2.8-1.2-2.8-2.8V95.5z"/>
	<path class="st5" d="M35.9,118.9c0-1.4,1.2-2.6,2.6-2.6l0,0c1.5,0,2.6,1.2,2.6,2.6v3.8c0,1.4-1.2,2.6-2.6,2.6l0,0
		c-1.4,0-2.6-1.2-2.6-2.6V118.9z"/>
	<path class="st5" d="M41.7,118.9c0-1.4,1.2-2.6,2.6-2.6l0,0c1.4,0,2.6,1.2,2.6,2.6v3.8c0,1.4-1.2,2.6-2.6,2.6l0,0
		c-1.4,0-2.6-1.2-2.6-2.6V118.9z"/>
	<path class="st5" d="M47.6,118.9c0-1.4,1.2-2.6,2.6-2.6l0,0c1.4,0,2.6,1.2,2.6,2.6v3.8c0,1.4-1.2,2.6-2.6,2.6l0,0
		c-1.4,0-2.6-1.2-2.6-2.6V118.9z"/>
	<path class="st16" d="M66.7,116.9c3.8,0,6.8-3.1,6.8-6.8c0-3.8-3.1-6.8-6.8-6.8c-3.8,0-6.8,3.1-6.8,6.8c0,0.5,0,0.9,0.1,1.4
		c-0.9,1.3-2.5,3.3-2.4,3.4c0,0,0,0,0,0c0.1,0,2-0.7,3.4-1.1C62.1,115.6,64.2,116.9,66.7,116.9z M69.2,106.4l0,7.4
		c0,0.3-0.2,0.6-0.6,0.6c-0.3,0-0.6-0.2-0.6-0.6l0-7.4c0-0.3,0.2-0.6,0.6-0.6C69,105.8,69.2,106.1,69.2,106.4z M67.3,106.4l0,7.4
		c0,0.3-0.2,0.6-0.6,0.6c-0.3,0-0.6-0.2-0.6-0.6l0-7.4c0-0.3,0.2-0.6,0.6-0.6C67.1,105.8,67.3,106.1,67.3,106.4z M64.3,113.8l0-7.4
		c0-0.3,0.2-0.6,0.6-0.6c0.3,0,0.6,0.2,0.6,0.6l0,7.4c0,0.3-0.2,0.6-0.6,0.6C64.6,114.3,64.3,114.1,64.3,113.8z"/>
	<path class="st8" d="M51.9,120v-1.6c0-0.6-0.5-1.1-1.1-1.1h-1.4c-0.6,0-1.1,0.5-1.1,1.1v1.6H51.9z"/>
	<path class="st8" d="M48.2,102.1v1.7c0,0.7,0.6,1.3,1.3,1.3H51c0.7,0,1.3-0.6,1.3-1.3v-1.7H48.2z"/>
	<path class="st8" d="M46.1,120v-1.6c0-0.6-0.5-1.1-1.1-1.1h-1.4c-0.6,0-1.1,0.5-1.1,1.1v1.6H46.1z"/>
	<path class="st8" d="M40.4,120v-1.6c0-0.6-0.5-1.1-1.1-1.1h-1.4c-0.6,0-1.1,0.5-1.1,1.1v1.6H40.4z"/>
	<path class="st5" d="M22.1,96.2c-0.5,3.4-2.1,5.6-2.1,9.1c0,2,0.1,5.2,0.3,7.2h11.8V96.2H22.1z"/>
	<path class="st5" d="M53.4,118.9c0-1.4,1.2-2.6,2.6-2.6l0,0c1.4,0,2.6,1.2,2.6,2.6v3.8c0,1.4-1.2,2.6-2.6,2.6l0,0
		c-1.4,0-2.6-1.2-2.6-2.6V118.9z"/>
	<path class="st8" d="M57.8,120v-1.6c0-0.6-0.5-1.1-1.1-1.1h-1.4c-0.6,0-1.1,0.5-1.1,1.1v1.6H57.8z"/>
	<rect x="21" y="95.8" class="st16" width="5.5" height="17.1"/>
	<path class="st4" d="M0,117h16.9c2.5,0,4.6-2.2,4.6-4.9V96.5c0-2.7-2.1-4.9-4.6-4.9H0V117z"/>
</g>
<g>
	<path class="st5" d="M278.9,102.1c2,1.2,2.7,3.8,1.6,5.8l-8.2,13.5c-1.2,2-3.8,2.7-5.8,1.6l-9.9-5.7c-2-1.2-2.7-3.8-1.6-5.8
		l8.2-13.5c1.2-2,3.8-2.7,5.8-1.6L278.9,102.1z"/>
	<path class="st5" d="M254.2,118.2l-1.2,5.5h12.8c2.3,0,4.2-1.9,4.2-4.2v-7.7c-1.3-0.5-2.8-0.7-4.3-0.7
		C260.6,111,256.2,113.9,254.2,118.2z"/>
	<path class="st5" d="M269.2,118.2c1.5,0,2.8,1.2,2.8,2.8h0.4c0,1.5-1.6,2.8-3.2,2.8h-23c-1.5,0-2.8-1.2-2.8-2.8l0,0
		c0-1.5,1.2-2.8,2.8-2.8H269.2z"/>
	<path class="st8" d="M247.5,118.9h-1.7c-0.7,0-1.2,0.6-1.2,1.2v1.5c0,0.7,0.6,1.2,1.2,1.2h1.7V118.9z"/>
	<path class="st3" d="M266.3,61.8c1.8,0,3.2,1.4,3.2,3.2v49.9c0,1.8-1.4,3.2-3.2,3.2h-37.5c-1.8,0-3.2-1.4-3.2-3.2V65
		c0-1.8,1.4-3.2,3.2-3.2H266.3z"/>
	<rect x="229.4" y="63.2" class="st21" width="35.5" height="53.5"/>
	<circle class="st1" cx="266.9" cy="90" r="1.1"/>
	<rect x="231.5" y="65.3" class="st16" width="30.9" height="49.2"/>
	<g>
		<g>
			
				<rect x="230.6" y="99.9" transform="matrix(1.202182e-03 -1 1 1.202182e-03 135.7291 336.5262)" class="st3" width="11.4" height="0.9"/>
			<g>
				<rect x="233.5" y="106.9" class="st19" width="5.6" height="5.5"/>
				<g>
					<circle class="st13" cx="235.6" cy="109.7" r="1.3"/>
					<path class="st13" d="M239.1,107.7h-1.3c-0.4,0-0.7,0.3-0.7,0.7v2.6c0,0.4,0.3,0.7,0.7,0.7h1.3V107.7z"/>
				</g>
			</g>
		</g>
		<g>
			
				<rect x="237.8" y="99.9" transform="matrix(1.116351e-03 -1 1 1.116351e-03 142.9196 343.7131)" class="st3" width="11.4" height="0.9"/>
			<g>
				<rect x="240.7" y="106.9" class="st19" width="5.6" height="5.5"/>
				<g>
					<circle class="st13" cx="242.8" cy="109.7" r="1.3"/>
					<path class="st13" d="M246.3,107.7h-1.3c-0.4,0-0.7,0.3-0.7,0.7v2.6c0,0.4,0.3,0.7,0.7,0.7h1.3V107.7z"/>
				</g>
			</g>
		</g>
		<g>
			
				<rect x="245" y="99.9" transform="matrix(1.202182e-03 -1 1 1.202182e-03 150.0693 350.8836)" class="st3" width="11.4" height="0.9"/>
			<g>
				<rect x="247.9" y="106.9" class="st19" width="5.6" height="5.5"/>
				<g>
					<circle class="st13" cx="249.9" cy="109.7" r="1.3"/>
					<path class="st13" d="M253.5,107.7h-1.3c-0.4,0-0.7,0.3-0.7,0.7v2.6c0,0.4,0.3,0.7,0.7,0.7h1.3V107.7z"/>
				</g>
			</g>
		</g>
		<g>
			
				<rect x="252.2" y="99.9" transform="matrix(1.030520e-03 -1 1 1.030520e-03 157.2827 358.0786)" class="st3" width="11.4" height="0.9"/>
			<g>
				<rect x="255" y="106.9" class="st19" width="5.6" height="5.5"/>
				<g>
					<circle class="st13" cx="257.1" cy="109.7" r="1.3"/>
					<path class="st13" d="M260.7,107.7h-1.3c-0.4,0-0.7,0.3-0.7,0.7v2.6c0,0.4,0.3,0.7,0.7,0.7h1.3V107.7z"/>
				</g>
			</g>
		</g>
	</g>
	<g>
		<g>
			<path class="st5" d="M257.5,76c1.4-0.2,2.8,0.7,3,2.2l0,0c0.2,1.4-0.7,2.8-2.2,3l-20.5,3.4c-1.4,0.2-2.8-0.7-3-2.2l0,0
				c-0.2-1.4,0.7-2.8,2.2-3L257.5,76z"/>
			<path class="st5" d="M256.5,69.7c1.4-0.2,2.8,0.7,3,2.2l0,0c0.2,1.4-0.7,2.8-2.2,3l-4,0.7c-1.4,0.2-2.8-0.7-3-2.2l0,0
				c-0.2-1.4,0.7-2.8,2.2-3L256.5,69.7z"/>
			<path class="st5" d="M255.5,63.5c1.4-0.2,2.8,0.7,3,2.2l0,0c0.2,1.4-0.7,2.8-2.2,3l-4,0.7c-1.4,0.2-2.8-0.7-3-2.2l0,0
				c-0.2-1.4,0.7-2.8,2.2-3L255.5,63.5z"/>
			<path class="st5" d="M254.4,57.3c1.4-0.2,2.8,0.7,3,2.2l0,0c0.2,1.4-0.7,2.8-2.2,3l-4,0.7c-1.4,0.2-2.8-0.7-3-2.2l0,0
				c-0.2-1.4,0.7-2.8,2.2-3L254.4,57.3z"/>
			<path class="st5" d="M250.9,62.2l2.5,15.5c0.4,2.3,2.6,3.9,4.9,3.5l12.3-2l7.4-7l-2.3-14c-0.4-2.3-2.6-3.9-4.9-3.5l-16.4,2.7
				C252,57.6,250.5,59.8,250.9,62.2z"/>
			<path class="st5" d="M259.2,74.4c0.4,2.4,1.7,4.5,3.5,5.9l-8.2,7.7c-1.1,1.1-1.2,2.9-0.1,4c1.1,1.1,2.9,1.2,4,0.1l18.7-17.7
				c0.7-0.6,1-1.5,0.8-2.4l0,0c0,0,0,0,0,0c0-0.1,0-0.1,0-0.2c0-0.1,0-0.3-0.1-0.4c-0.8-5.2-5.7-8.7-10.8-7.8
				C261.9,64.4,258.4,69.3,259.2,74.4z"/>
			<path class="st8" d="M238.2,79.9l-1.6,0.3c-0.6,0.1-1.1,0.7-1,1.4l0.2,1.4c0.1,0.6,0.7,1.1,1.4,1l1.6-0.3L238.2,79.9z"/>
			<path class="st8" d="M258.4,92.2l1.5-1.4l-2.5-2.6l-1.5,1.4c-0.6,0.6-0.6,1.5,0,2.1l1.1,1.2C257.5,92.8,258,92.6,258.4,92.2z"/>
		</g>
		<rect x="269.9" y="57.1" class="st5" width="21.1" height="15.2"/>
		<rect x="283.1" y="56.1" class="st21" width="5.4" height="16.3"/>
		<rect x="287.9" y="55.5" class="st20" width="12.2" height="17.5"/>
	</g>
	<g>
		<rect x="271.1" y="106.2" class="st5" width="21.1" height="15.2"/>
		<rect x="283.1" y="105.6" class="st21" width="5.4" height="16.3"/>
		<rect x="287.9" y="105" class="st20" width="12.2" height="17.5"/>
	</g>
</g>
<g>
	<g>
		<path class="st16" d="M210.3,97.7l1.2,1.2c-2.9,2.9-3,7.7,0,10.7l-1.2,1.2C206.7,107.2,206.7,101.3,210.3,97.7z"/>
		<path class="st16" d="M212.6,100.1l1.2,1.2c-1.7,1.7-1.7,4.3,0,6l-1.2,1.2C210.3,106.2,210.3,102.4,212.6,100.1z"/>
		<path class="st16" d="M217.1,103c0.7,0.7,0.7,1.9,0,2.6c-0.7,0.7-1.9,0.7-2.6,0c-0.7-0.7-0.7-1.9,0-2.6
			C215.2,102.3,216.4,102.3,217.1,103z M215.4,104.7c0.2,0.2,0.6,0.2,0.9,0c0.2-0.2,0.2-0.6,0-0.9c-0.2-0.2-0.6-0.2-0.9,0
			C215.2,104.1,215.2,104.5,215.4,104.7z"/>
	</g>
	<g>
		<path class="st16" d="M214.1,91.2c-0.5,0-0.9,0.4-0.9,0.9l0,5.8c0,0.5,0.4,0.9,0.9,0.9l2.3,0l0-7.6L214.1,91.2z"/>
		<path class="st3" d="M218.2,110.3l-1.3,0l0,7l1.3,0c1.3,0,2.4-1.1,2.4-2.4l0-0.6c0.7-2.4,1.2-5.4,1.3-8.6c0-0.4,0-1.9,0-2.1
			c-0.1-3.3-0.5-6.4-1.3-8.9v-0.6c0-1.3-1.1-2.4-2.4-2.4l-1.3,0l0,7l1.3,0c0,0,0.1,0,0.1,0c0.2,1.4,0.3,2.9,0.4,4.5
			c0,0.5,0,2.3,0,2.8c-0.1,1.6-0.2,3.1-0.4,4.5C218.3,110.3,218.3,110.3,218.2,110.3z"/>
		<path class="st16" d="M216.4,110l-2.3,0c-0.5,0-0.9,0.4-0.9,0.9l0,5.8c0,0.5,0.4,0.9,0.9,0.9l2.3,0L216.4,110z"/>
	</g>
</g>
<g>
	<path class="st21" d="M192.5,42.4c0,0-2.5,1.1-3.3,1.5c-1.5,0.7-3,1.3-3,2.9c0,1.6,1.5,2.3,2.9,3c1,0.5,3.3,1.5,3.3,1.5l11.2,0.1
		l0-8.9L192.5,42.4z M188.6,48.2c-0.8,0-1.4-0.6-1.4-1.4c0-0.8,0.6-1.4,1.4-1.4c0.8,0,1.4,0.6,1.4,1.4S189.4,48.2,188.6,48.2z"/>
	
		<rect x="193.2" y="43.7" transform="matrix(1 4.902947e-03 -4.902947e-03 1 0.232 -0.9694)" class="st16" width="9.2" height="6.2"/>
	<g>
		
			<rect x="194.6" y="45" transform="matrix(1 5.051987e-03 -5.051987e-03 1 0.2312 -0.9986)" class="st11" width="6.4" height="0.6"/>
		
			<rect x="194.6" y="46.5" transform="matrix(1 4.897401e-03 -4.897401e-03 1 0.2317 -0.968)" class="st11" width="6.4" height="0.6"/>
		
			<rect x="194.6" y="48.1" transform="matrix(1 4.821619e-03 -4.821619e-03 1 0.2357 -0.953)" class="st11" width="6.4" height="0.6"/>
	</g>
</g>
<g>
	<circle class="st21" cx="84.2" cy="76.5" r="15.4"/>
</g>
<g>
	<g>
		
			<rect x="74.8" y="69.4" transform="matrix(-1 -1.143845e-03 1.143845e-03 -1 168.3824 151.9103)" class="st16" width="18.8" height="13"/>
		<path class="st17" d="M94.1,82.9l-19.7,0l0-13.9l19.7,0L94.1,82.9z M75.3,82l17.9,0l0-12.1l-17.9,0L75.3,82z"/>
	</g>
	<g>
		<polygon class="st16" points="74.8,82.4 84.2,75.2 93.6,82.4 		"/>
		<path class="st17" d="M93.6,82.9L93.6,82.9l-18.8,0c-0.2,0-0.4-0.1-0.4-0.3c-0.1-0.2,0-0.4,0.1-0.5l9.4-7.2c0.2-0.1,0.4-0.1,0.5,0
			l9.4,7.2c0.1,0.1,0.2,0.2,0.2,0.4C94.1,82.7,93.9,82.9,93.6,82.9C93.6,82.9,93.6,82.9,93.6,82.9z M76.1,82l16.2,0l-8.1-6.2
			L76.1,82z"/>
	</g>
	<g>
		<polygon class="st16" points="74.9,69.4 84.2,77.3 93.6,69.4 		"/>
		<path class="st17" d="M84.2,77.7c-0.1,0-0.2,0-0.3-0.1l-9.4-7.9c-0.1-0.1-0.2-0.3-0.1-0.5c0.1-0.2,0.2-0.3,0.4-0.3h0l18.8,0
			c0.2,0,0.3,0.1,0.4,0.3c0.1,0.2,0,0.4-0.1,0.5l-9.4,7.9C84.4,77.7,84.3,77.7,84.2,77.7z M76.1,69.8l8.2,6.9l8.2-6.9L76.1,69.8z"/>
	</g>
</g>
<g>
	<g>
		<polygon class="st16" points="213.9,138.6 210.7,131.4 217.9,134.7 		"/>
		<path class="st16" d="M213.9,138.7l-3.4-7.4l7.4,3.4L213.9,138.7z M210.8,131.5l3.2,7.1l3.9-3.9L210.8,131.5z"/>
	</g>
	<g>
		<g>
			
				<rect x="217.8" y="136.2" transform="matrix(0.7078 -0.7064 0.7064 0.7078 -36.4371 196.0495)" class="st15" width="2" height="11.7"/>
			
				<rect x="219.2" y="134.8" transform="matrix(0.7077 -0.7065 0.7065 0.7077 -34.9934 196.6898)" class="st14" width="2" height="11.7"/>
		</g>
		
			<rect x="220.7" y="133.5" transform="matrix(0.7077 -0.7065 0.7065 0.7077 -33.7178 197.2153)" class="st6" width="1.6" height="11.7"/>
	</g>
	<path class="st22" d="M212.2,132.1l-0.9-0.7c-0.2-0.2-0.4-0.2-0.6-0.1l-0.2,0.2c-0.1,0.1-0.1,0.4,0.1,0.6l0.7,0.9L212.2,132.1z"/>
</g>
<g>
	<rect x="92.2" y="46.5" class="st3" width="0.7" height="9.1"/>
	
		<rect x="84.2" y="55.6" transform="matrix(1 1.121208e-03 -1.121208e-03 1 6.276703e-02 -0.1037)" class="st3" width="16.5" height="0.7"/>
	<circle class="st21" cx="92.5" cy="55.9" r="1.4"/>
	<path class="st16" d="M97.4,44.5c0.1-0.3,0.2-0.6,0.2-1c0-1.2-1-2.3-2.3-2.3c-0.3,0-0.6,0.1-0.9,0.2c-0.5-1.2-1.7-2-3.1-2
		c-1.8,0-3.3,1.5-3.3,3.3c0,0.2,0,0.3,0,0.5c-0.1,0-0.1,0-0.2,0c-2.4,0-4.3,1.9-4.3,4.3c0,2.4,1.9,4.3,4.3,4.3c2.4,0,7.2,0,9.2,0
		c2,0,3.7-1.6,3.7-3.6C100.8,46.2,99.3,44.6,97.4,44.5z"/>
</g>
<g>
	<circle class="st18" cx="101.6" cy="120.5" r="6.1"/>
	<path class="st0" d="M97.2,116.1c-1.5,1.5-2.1,3.6-1.7,5.6c2.1,0.1,4.3-0.7,5.9-2.3c1.3-1.3,2.1-2.9,2.3-4.6
		C101.6,113.9,99,114.4,97.2,116.1z"/>
	<g>
		<path class="st3" d="M106.6,115.4c-2.8-2.8-7.3-2.8-10.1,0c-2.8,2.8-2.8,7.3,0,10.1c2.8,2.8,7.3,2.8,10.1,0
			C109.4,122.8,109.4,118.2,106.6,115.4z M97.7,124.4c-2.1-2.1-2.1-5.6,0-7.7c2.1-2.1,5.6-2.1,7.7,0c2.1,2.1,2.1,5.6,0,7.7
			C103.3,126.5,99.8,126.5,97.7,124.4z"/>
		
			<rect x="91.5" y="123" transform="matrix(0.7072 0.707 -0.707 0.7072 118.5464 -27.7904)" class="st3" width="2.6" height="12.5"/>
		
			<rect x="89.4" y="125.4" transform="matrix(0.707 0.7072 -0.7072 0.707 119.1455 -26.4197)" class="st10" width="4.2" height="10.3"/>
	</g>
	<circle class="st16" cx="100.3" cy="117" r="1.2"/>
</g>
<g>
	<path class="st16" d="M181.4,68H181v-1.2h0.4V68z M181.4,65.7H181v-1.2h0.4V65.7z M181.4,63.3H181v-1.2h0.4V63.3z M181.4,60.9H181
		v-1.2h0.4V60.9z M181.4,58.5H181v-0.8h0.4V58.5z"/>
	<g>
		<circle class="st16" cx="181.2" cy="68" r="1.5"/>
		<path class="st16" d="M182.9,68c0-0.9-0.8-1.7-1.7-1.7s-1.7,0.8-1.7,1.7s0.8,1.7,1.7,1.7S182.9,68.9,182.9,68S182.9,68.9,182.9,68
			z M179.9,68c0-0.7,0.6-1.3,1.3-1.3s1.3,0.6,1.3,1.3s-0.6,1.3-1.3,1.3S179.9,68.7,179.9,68S179.9,68.7,179.9,68z"/>
	</g>
	<g>
		<polygon class="st16" points="183.1,58.3 181.2,54.8 179.2,58.3 		"/>
	</g>
</g>
<g>
	<path class="st16" d="M209.1,121.4l0.3,0.3l-0.8,0.8l-0.3-0.3L209.1,121.4z M207.5,123.1l0.3,0.3l-0.8,0.8l-0.3-0.3L207.5,123.1z
		 M205.8,124.8l0.3,0.3l-0.8,0.8l-0.3-0.3L205.8,124.8z M204.1,126.5l0.3,0.3l-0.8,0.8l-0.3-0.3L204.1,126.5z M202.4,128.1l0.3,0.3
		l-0.6,0.6l-0.3-0.3L202.4,128.1z"/>
	<g>
		<circle class="st16" cx="209.2" cy="121.6" r="1.5"/>
		<path class="st16" d="M208,120.4c-0.7,0.7-0.7,1.7,0,2.4c0.7,0.7,1.7,0.7,2.4,0c0.7-0.7,0.7-1.7,0-2.4
			C209.8,119.7,208.7,119.7,208,120.4C207.4,121.1,208.7,119.7,208,120.4z M210.1,122.5c-0.5,0.5-1.3,0.5-1.8,0
			c-0.5-0.5-0.5-1.3,0-1.8c0.5-0.5,1.3-0.5,1.8,0C210.6,121.2,210.6,122,210.1,122.5S210.6,122,210.1,122.5z"/>
	</g>
	<g>
		<polygon class="st16" points="201,127 200,130.9 203.8,129.8 		"/>
	</g>
</g>
<g>
	<path class="st16" d="M88.4,105.2v-0.4h1.2v0.4H88.4z M90.8,105.2v-0.4H92v0.4H90.8z M93.2,105.2v-0.4h1.2l0,0.4H93.2z M95.5,105.2
		v-0.4h1.2v0.4H95.5z M97.9,105.2v-0.4h0.8v0.4H97.9z"/>
	<g>
		<circle class="st16" cx="88.5" cy="105" r="1.5"/>
		<path class="st16" d="M88.5,106.7c0.9,0,1.7-0.8,1.7-1.7s-0.8-1.7-1.7-1.7c-0.9,0-1.7,0.8-1.7,1.7S87.5,106.7,88.5,106.7
			C89.4,106.7,87.5,106.7,88.5,106.7z M88.5,103.7c0.7,0,1.3,0.6,1.3,1.3c0,0.7-0.6,1.3-1.3,1.3c-0.7,0-1.3-0.6-1.3-1.3
			C87.2,104.3,87.8,103.7,88.5,103.7C89.2,103.7,87.8,103.7,88.5,103.7z"/>
	</g>
	<g>
		<polygon class="st16" points="98.2,107 101.6,105 98.2,103 		"/>
	</g>
</g>
<g>
	<path class="st16" d="M122.2,139.4l-0.3,0.3l-0.8-0.8l0.3-0.3L122.2,139.4z M120.5,137.7l-0.3,0.3l-0.8-0.8l0.3-0.3L120.5,137.7z
		 M118.9,136l-0.3,0.3l-0.8-0.8l0.3-0.3L118.9,136z M117.2,134.4l-0.3,0.3l-0.8-0.8l0.3-0.3L117.2,134.4z M115.5,132.7l-0.3,0.3
		l-0.6-0.6l0.3-0.3L115.5,132.7z"/>
	<g>
		<circle class="st16" cx="122" cy="139.5" r="1.5"/>
		<path class="st16" d="M123.2,138.3c-0.7-0.7-1.7-0.7-2.4,0c-0.7,0.7-0.7,1.7,0,2.4c0.7,0.7,1.7,0.7,2.4,0
			C123.9,140,123.9,139,123.2,138.3S123.9,139,123.2,138.3z M121.1,140.4c-0.5-0.5-0.5-1.3,0-1.8c0.5-0.5,1.3-0.5,1.8,0
			c0.5,0.5,0.5,1.3,0,1.8C122.4,140.9,121.6,140.9,121.1,140.4C120.6,139.9,121.6,140.9,121.1,140.4z"/>
	</g>
	<g>
		<polygon class="st16" points="116.6,131.3 112.8,130.2 113.8,134.1 		"/>
	</g>
</g>
<g>
	<path class="st3" d="M108.1,141.6l-1.4,7.3h-8.9l-1.4-7.3H108.1 M108.9,140.9H95.6l1.6,8.7h10.1L108.9,140.9L108.9,140.9z"/>
	<g>
		<path class="st3" d="M100.3,149.5c-0.2,0-0.4-0.2-0.4-0.4v-7.9c0-0.2,0.2-0.4,0.4-0.4c0.2,0,0.4,0.2,0.4,0.4v7.9
			C100.6,149.4,100.5,149.5,100.3,149.5z"/>
		<path class="st3" d="M104.3,149.6c-0.2,0-0.4-0.2-0.4-0.4v-7.9c0-0.2,0.2-0.4,0.4-0.4c0.2,0,0.4,0.2,0.4,0.4v7.9
			C104.7,149.4,104.5,149.6,104.3,149.6z"/>
	</g>
	<path class="st3" d="M107.8,145.6H96.7c-0.2,0-0.4-0.2-0.4-0.4s0.2-0.4,0.4-0.4h11.1c0.2,0,0.4,0.2,0.4,0.4S108,145.6,107.8,145.6z
		"/>
	<path class="st3" d="M102.4,141.4c-0.1,0-0.1,0-0.2-0.1c-0.2-0.1-0.2-0.3-0.1-0.5l4.1-5.5c0.1-0.2,0.3-0.2,0.5-0.1
		c0.2,0.1,0.2,0.3,0.1,0.5l-4.1,5.5C102.6,141.4,102.5,141.4,102.4,141.4z"/>
	<circle class="st3" cx="102.5" cy="141.1" r="0.8"/>
</g>
<path class="st16" d="M222.5,54.7l0.3-0.6l-0.8-0.5l-0.3,0.6c-0.4-0.2-0.8-0.2-1.2-0.2l-0.2-0.6l-0.9,0.2l0.2,0.6
	c-0.4,0.2-0.7,0.4-1,0.7l-0.6-0.3l-0.5,0.8l0.6,0.3c-0.2,0.4-0.2,0.8-0.2,1.2l-0.6,0.2l0.2,0.9l0.6-0.2c0.2,0.4,0.4,0.7,0.7,1
	l-0.4,0.6l0.8,0.5l0.4-0.6c0.4,0.2,0.8,0.2,1.2,0.2l0.2,0.6l0.9-0.2l-0.2-0.6c0.4-0.2,0.7-0.4,1-0.7l0.6,0.3l0.5-0.8l-0.6-0.3
	c0.2-0.4,0.2-0.8,0.2-1.2l0.6-0.2l-0.2-0.9l-0.6,0.2C223.1,55.3,222.9,55,222.5,54.7z M222.3,56.4c0.2,0.8-0.3,1.7-1.2,1.9
	s-1.7-0.3-1.9-1.2s0.3-1.7,1.2-1.9C221.2,55.1,222.1,55.6,222.3,56.4z"/>
<path class="st16" d="M59.6,80.4l0.4-0.6l-0.8-0.5l-0.4,0.6c-0.4-0.2-0.8-0.2-1.2-0.2l-0.2-0.6l-0.9,0.2l0.2,0.6
	c-0.4,0.2-0.7,0.4-1,0.7l-0.6-0.3L54.7,81l0.6,0.3c-0.2,0.4-0.2,0.8-0.2,1.2l-0.6,0.2l0.2,0.9l0.6-0.2c0.2,0.4,0.4,0.7,0.7,1
	L55.7,85l0.8,0.5l0.4-0.6c0.4,0.2,0.8,0.2,1.2,0.2l0.2,0.6l0.9-0.2l-0.2-0.6c0.4-0.2,0.7-0.4,1-0.7l0.6,0.3l0.5-0.8l-0.6-0.3
	c0.2-0.4,0.2-0.8,0.2-1.2l0.6-0.2L61,81.2l-0.6,0.2C60.2,81,59.9,80.6,59.6,80.4z M59.3,82.1c0.2,0.8-0.3,1.7-1.2,1.9
	c-0.8,0.2-1.7-0.3-1.9-1.2c-0.2-0.8,0.3-1.7,1.2-1.9C58.3,80.7,59.1,81.2,59.3,82.1z"/>
<path class="st16" d="M195,96.1l0.4-0.6l-0.8-0.5l-0.4,0.6c-0.4-0.2-0.8-0.2-1.2-0.2l-0.2-0.6L192,95l0.2,0.6
	c-0.4,0.2-0.7,0.4-1,0.7l-0.6-0.3l-0.5,0.8l0.6,0.3c-0.2,0.4-0.2,0.8-0.2,1.2l-0.6,0.2l0.2,0.9l0.6-0.2c0.2,0.4,0.4,0.7,0.7,1
	l-0.4,0.6l0.8,0.5l0.3-0.6c0.4,0.2,0.8,0.2,1.2,0.2l0.2,0.6l0.9-0.2l-0.2-0.6c0.4-0.2,0.7-0.4,1-0.7l0.6,0.3l0.5-0.8l-0.6-0.3
	c0.2-0.4,0.2-0.8,0.2-1.2l0.6-0.2l-0.2-0.9l-0.6,0.2C195.6,96.8,195.3,96.4,195,96.1z M194.8,97.8c0.2,0.8-0.3,1.7-1.2,1.9
	c-0.8,0.2-1.7-0.3-1.9-1.2c-0.2-0.8,0.3-1.7,1.2-1.9C193.7,96.5,194.6,97,194.8,97.8z"/>
<circle class="st21" cx="202.4" cy="74.2" r="15.9"/>
<g>
	<path class="st16" d="M111.1,107.3h2.2c0,5.3,4.3,9.7,9.7,9.7v2.2C116.4,119.1,111.1,113.8,111.1,107.3z"/>
	<path class="st16" d="M115.3,107.3l2.2,0c0,3,2.4,5.4,5.4,5.4v2.2C118.7,114.9,115.3,111.5,115.3,107.3z"/>
	<path class="st16" d="M122,105.8c1.3,0,2.3,1.1,2.3,2.3c0,1.3-1.1,2.3-2.3,2.3c-1.3,0-2.3-1.1-2.3-2.3
		C119.7,106.9,120.7,105.8,122,105.8z M122,109c0.4,0,0.8-0.3,0.8-0.8c0-0.4-0.3-0.8-0.8-0.8c-0.4,0-0.8,0.3-0.8,0.8
		C121.3,108.6,121.6,109,122,109z"/>
</g>
<g>
	<g>
		<path class="st16" d="M206.1,79.9c0.1,0.1,2.4,7.1,2.5,7.3c0.1,0.2-6.7-4.9-6.7-4.9S206,79.7,206.1,79.9z"/>
		<path class="st16" d="M206.1,79.9C206.1,79.8,206.1,79.8,206.1,79.9c-0.6,0.1-4.3,2.4-4.3,2.4s6.6,4.9,6.7,4.9c0,0,0,0,0,0
			C208.5,87,206.1,79.9,206.1,79.9z"/>
	</g>
	<path class="st16" d="M191.4,72.9c0,5.8,4.7,10.5,10.5,10.5s10.5-4.7,10.5-10.5c0-5.8-4.7-10.5-10.5-10.5
		C196.1,62.4,191.4,67.1,191.4,72.9z M195.4,75.7c0-0.5,0.4-0.9,0.8-0.9l11.3,0c0.5,0,0.9,0.4,0.9,0.9c0,0.5-0.4,0.9-0.8,0.9
		l-11.3,0C195.7,76.6,195.4,76.2,195.4,75.7z M195.4,72.7c0-0.5,0.4-0.9,0.8-0.9l11.3,0c0.5,0,0.9,0.4,0.9,0.8
		c0,0.5-0.4,0.9-0.8,0.9l-11.3,0C195.7,73.6,195.4,73.2,195.4,72.7z M195.3,69.8c0-0.5,0.4-0.9,0.8-0.9l11.3,0
		c0.5,0,0.9,0.4,0.9,0.9c0,0.5-0.4,0.9-0.9,0.9l-11.3,0C195.7,70.6,195.3,70.2,195.3,69.8z"/>
</g>
</svg>
